HIERARCHY
ROOT joint_Root
{
	OFFSET 0.0 0.0 0.0
	CHANNELS 6 Xposition Yposition Zposition Zrotation Xrotation Yrotation 
	JOINT Hips
	{
		OFFSET 4.5925 91.4895 -427.239
		CHANNELS 6 Xposition Yposition Zposition Zrotation Xrotation Yrotation 
		JOINT Spine
		{
			OFFSET 15.7357 0.0 0.0
			CHANNELS 6 Xposition Yposition Zposition Zrotation Xrotation Yrotation 
			JOINT Chest
			{
				OFFSET 8.98455 -0.406207 0.0
				CHANNELS 6 Xposition Yposition Zposition Zrotation Xrotation Yrotation 
				JOINT Neck
				{
					OFFSET 16.3773 0.0 0.0
					CHANNELS 6 Xposition Yposition Zposition Zrotation Xrotation Yrotation 
					JOINT Head
					{
						OFFSET 6.45672 0.0 0.0
						CHANNELS 6 Xposition Yposition Zposition Zrotation Xrotation Yrotation 
						End Site
						{
							OFFSET 0.0 0.0 0.0
						}
					}
				}
				JOINT Shoulder_L
				{
					OFFSET 12.9942 -0.242716 4.98039
					CHANNELS 6 Xposition Yposition Zposition Zrotation Xrotation Yrotation 
					JOINT UpperArm_L
					{
						OFFSET 5.34809 0.0 0.0
						CHANNELS 6 Xposition Yposition Zposition Zrotation Xrotation Yrotation 
						JOINT LowerArm_L
						{
							OFFSET 24.3286 1.87007e-05 0.0
							CHANNELS 6 Xposition Yposition Zposition Zrotation Xrotation Yrotation 
							JOINT Hand_L
							{
								OFFSET 22.2916 0.0 0.0
								CHANNELS 6 Xposition Yposition Zposition Zrotation Xrotation Yrotation 
								End Site
								{
									OFFSET 0.0 0.0 0.0
								}
							}
						}
					}
				}
				JOINT Shoulder_R
				{
					OFFSET 12.9945 -0.242716 -4.98039
					CHANNELS 6 Xposition Yposition Zposition Zrotation Xrotation Yrotation 
					JOINT UpperArm_R
					{
						OFFSET -5.34813 0.0 0.0
						CHANNELS 6 Xposition Yposition Zposition Zrotation Xrotation Yrotation 
						JOINT LowerArm_R
						{
							OFFSET -24.3289 0.000322201 0.0
							CHANNELS 6 Xposition Yposition Zposition Zrotation Xrotation Yrotation 
							JOINT Hand_R
							{
								OFFSET -22.2915 -0.000108084 0.0
								CHANNELS 6 Xposition Yposition Zposition Zrotation Xrotation Yrotation 
								End Site
								{
									OFFSET 0.0 0.0 0.0
								}
							}
						}
					}
				}
			}
		}
		JOINT UpperLeg_L
		{
			OFFSET -2.19248 -6.46944 0.0
			CHANNELS 6 Xposition Yposition Zposition Zrotation Xrotation Yrotation 
			JOINT LowerLeg_L
			{
				OFFSET 39.0811 0.0 -1.23785e-05
				CHANNELS 6 Xposition Yposition Zposition Zrotation Xrotation Yrotation 
				JOINT Foot_L
				{
					OFFSET 40.9854 0.0 -1.26872e-05
					CHANNELS 6 Xposition Yposition Zposition Zrotation Xrotation Yrotation 
					JOINT Toes_L
					{
						OFFSET 11.7543 0.0 0.0
						CHANNELS 6 Xposition Yposition Zposition Zrotation Xrotation Yrotation 
						End Site
						{
							OFFSET 0.0 0.0 0.0
						}
					}
				}
			}
		}
		JOINT UpperLeg_R
		{
			OFFSET -2.19251 6.46944 0.0
			CHANNELS 6 Xposition Yposition Zposition Zrotation Xrotation Yrotation 
			JOINT LowerLeg_R
			{
				OFFSET -39.0811 -0.00228153 -0.0401928
				CHANNELS 6 Xposition Yposition Zposition Zrotation Xrotation Yrotation 
				JOINT Foot_R
				{
					OFFSET -40.9854 0.0 0.0
					CHANNELS 6 Xposition Yposition Zposition Zrotation Xrotation Yrotation 
					JOINT Toes_R
					{
						OFFSET -11.7543 0.0 0.0
						CHANNELS 6 Xposition Yposition Zposition Zrotation Xrotation Yrotation 
						End Site
						{
							OFFSET 0.0 0.0 0.0
						}
					}
				}
			}
		}
	}
}
MOTION
Frames:	4
Frame Time:	0.0333333
0.000000 0.000000 0.000000 0.000000 0.000000 -0.000000 -1.346010 90.496000 -7.569970 89.360700 -2.626880 6.741780 15.735700 0.000005 -0.000001 89.277900 77.433900 -89.608800 8.984550 -0.406207 -0.000000 17.363400 -0.338888 -0.611148 16.377300 -0.000001 -0.000001 2.620570 -4.562350 2.662040 6.456720 -0.000001 -0.000000 -8.300260 -3.598440 0.455951 12.994200 -0.242716 4.980390 -91.117500 6.204920 -79.770100 5.348090 -0.000007 -0.000001 -54.066000 35.846100 -33.900500 24.328600 0.000019 0.000005 8.389130 20.215400 -23.111500 22.291600 -0.000001 0.000005 14.894900 5.148340 3.982700 12.994500 -0.242716 -4.980390 89.568200 10.119100 -87.544000 -5.348130 -0.000001 -0.000004 -59.730300 29.105600 -26.062100 -24.328900 0.000322 -0.000009 2.356240 5.465120 -23.376100 -22.291500 -0.000108 -0.000004 20.611600 5.405530 -3.118410 -2.192480 -6.469440 -0.000000 -175.677000 -11.128700 -10.615700 39.081100 -0.000007 -0.000012 -0.177894 0.263828 33.991300 40.985400 -0.000006 -0.000013 -0.296800 3.873000 -66.519700 11.754300 -0.000000 0.000003 -0.000074 -0.000791 -16.608100 -2.192510 6.469440 -0.000001 178.564000 18.532400 170.191000 -39.081100 -0.002282 -0.040193 -0.112366 0.173120 33.746600 -40.985400 0.000008 0.000006 5.493110 9.825510 -67.938000 -11.754300 -0.000006 -0.000006 -0.003751 -0.048824 -18.559000
0.000000 0.000000 0.000000 0.000000 0.000000 -0.000000 -1.355010 90.496300 -7.574010 89.359900 -2.583290 6.736660 15.735700 0.000005 -0.000001 89.178500 77.398100 -89.513300 8.984550 -0.406207 -0.000000 17.434500 -0.383248 -0.612006 16.377300 -0.000001 -0.000001 2.502380 -4.555120 2.674950 6.456720 -0.000001 -0.000000 -8.405780 -3.522490 0.528573 12.994200 -0.242716 4.980390 -91.132700 6.190680 -79.610800 5.348090 -0.000007 -0.000001 -55.033200 34.413500 -33.375900 24.328600 0.000019 0.000005 9.276850 21.377100 -24.137400 22.291600 -0.000001 0.000005 16.067700 5.135620 4.282310 12.994500 -0.242716 -4.980390 89.540700 10.190900 -87.406000 -5.348130 -0.000001 -0.000004 -60.412000 27.364900 -25.520900 -24.328900 0.000322 -0.000009 2.388500 5.203250 -24.708500 -22.291500 -0.000108 -0.000004 21.563100 5.408160 -3.203760 -2.192480 -6.469440 -0.000000 -175.674000 -11.069500 -10.627500 39.081100 -0.000007 -0.000012 -0.179070 0.265617 33.986900 40.985400 -0.000006 -0.000013 -0.307737 3.874840 -66.510800 11.754300 -0.000000 0.000003 -0.000081 -0.000862 -16.610800 -2.192510 6.469440 -0.000001 178.572000 18.583800 170.188000 -39.081100 -0.002282 -0.040193 -0.111515 0.171884 33.740600 -40.985400 0.000008 0.000006 5.472480 9.800040 -67.929500 -11.754300 -0.000006 -0.000006 -0.003740 -0.048704 -18.554100
0.000000 0.000000 0.000000 0.000000 0.000000 -0.000000 -1.359070 90.497900 -7.593830 89.354400 -2.578280 6.709610 15.735700 0.000005 -0.000001 89.159600 77.369700 -89.495400 8.984550 -0.406207 -0.000000 17.491000 -0.392439 -0.612432 16.377300 -0.000001 -0.000001 2.411210 -4.546020 2.673550 6.456720 -0.000001 -0.000000 -8.587520 -3.517810 0.583341 12.994200 -0.242716 4.980390 -91.163600 6.202580 -79.353100 5.348090 -0.000007 -0.000001 -56.001600 32.702200 -32.769500 24.328600 0.000019 0.000005 10.138300 21.780500 -25.730000 22.291600 -0.000001 0.000005 18.006600 5.113880 4.788960 12.994500 -0.242716 -4.980390 89.502400 10.188800 -87.188900 -5.348130 -0.000001 -0.000004 -60.993900 25.573600 -25.067900 -24.328900 0.000322 -0.000009 2.563870 5.160880 -26.472900 -22.291500 -0.000108 -0.000004 22.700500 5.408770 -3.223850 -2.192480 -6.469440 -0.000000 -175.675000 -11.090000 -10.663500 39.081100 -0.000007 -0.000012 -0.176818 0.262309 33.983600 40.985400 -0.000006 -0.000013 -0.304398 3.878310 -66.498400 11.754300 -0.000000 0.000003 -0.000079 -0.000839 -16.609900 -2.192510 6.469440 -0.000001 178.607000 18.576500 170.145000 -39.081100 -0.002282 -0.040193 -0.108368 0.167148 33.744700 -40.985400 0.000008 0.000006 5.573720 9.771220 -67.941500 -11.754300 -0.000006 -0.000006 -0.003684 -0.048116 -18.530200
0.000000 0.000000 0.000000 0.000000 0.000000 -0.000000 -1.359010 90.495200 -7.620400 89.374100 -2.569810 6.696850 15.735700 0.000005 -0.000001 89.140900 77.343100 -89.485800 8.984550 -0.406207 -0.000000 17.544000 -0.402188 -0.628905 16.377300 -0.000001 -0.000001 2.384320 -4.548420 2.629610 6.456720 -0.000001 -0.000000 -8.724940 -3.559440 0.642910 12.994200 -0.242716 4.980390 -91.184800 6.187220 -79.137400 5.348090 -0.000007 -0.000001 -56.853900 30.640300 -32.181200 24.328600 0.000019 0.000005 10.982200 21.534300 -27.864900 22.291600 -0.000001 0.000005 19.382200 5.093090 5.272080 12.994500 -0.242716 -4.980390 89.456700 10.134000 -86.915200 -5.348130 -0.000001 -0.000004 -61.158100 23.999400 -24.864900 -24.328900 0.000322 -0.000009 2.899290 5.344390 -28.543100 -22.291500 -0.000108 -0.000004 23.945000 5.412750 -3.355300 -2.192480 -6.469440 -0.000000 -175.707000 -11.069000 -10.701200 39.081100 -0.000007 -0.000012 -0.175461 0.260269 33.986300 40.985400 -0.000006 -0.000013 -0.303674 3.865250 -66.479600 11.754300 -0.000000 0.000003 -0.000075 -0.000806 -16.608700 -2.192510 6.469440 -0.000001 178.584000 18.627400 170.105000 -39.081100 -0.002282 -0.040193 -0.113788 0.175165 33.759100 -40.985400 0.000008 0.000006 5.512630 9.808420 -67.916000 -11.754300 -0.000006 -0.000006 -0.003800 -0.049345 -18.580200
